<?xml version="1.0" encoding="UTF-8" standalone="no"?>
<!DOCTYPE svg PUBLIC "-//W3C//DTD SVG 1.1//EN" "http://www.w3.org/Graphics/SVG/1.1/DTD/svg11.dtd">
<svg width="100%" height="100%" viewBox="0 0 90 90" version="1.1" xmlns="http://www.w3.org/2000/svg" xmlns:xlink="http://www.w3.org/1999/xlink" xml:space="preserve" xmlns:serif="http://www.serif.com/" style="fill-rule:evenodd;clip-rule:evenodd;stroke-linejoin:round;stroke-miterlimit:2;">
    <g transform="matrix(1,0,0,1,0,-0.899002)">
        <g>
            <path d="M69.26,30.731C68.285,32.754 67.337,34.558 66.363,36.247C66.146,36.63 65.902,37.013 65.659,37.392C65.506,37.628 65.353,37.863 65.209,38.101C58.754,48.611 50.051,57.644 39.81,64.449C39.183,64.865 39.188,65.783 39.833,66.17C40.94,66.833 42.321,67.567 43.419,68.069C43.746,68.218 44.13,68.176 44.426,67.971C53.597,61.586 61.422,53.663 67.7,44.409C69.029,42.418 70.141,40.643 71.094,38.991C71.319,38.612 71.519,38.238 71.72,37.86L72.085,37.186C73.156,35.249 74.142,33.301 75.022,31.385C75.134,31.142 75.168,30.872 75.12,30.608C74.784,28.755 74.309,26.924 73.703,25.131C73.393,24.216 72.114,24.203 71.756,25.1C70.996,26.999 70.163,28.881 69.26,30.731Z" style="fill:rgb(124,31,30);fill-rule:nonzero;"/>
            <path d="M38.087,67.26C37.702,67.043 37.317,66.799 36.934,66.557C36.702,66.412 36.473,66.266 36.24,66.126C25.591,59.585 16.422,50.671 9.588,40.242C9.311,39.819 8.696,39.831 8.447,40.271C7.855,41.316 6.966,42.972 6.301,44.309C6.135,44.645 6.171,45.04 6.385,45.348C12.763,54.504 20.679,62.323 29.929,68.6C31.854,69.901 33.628,71.016 35.349,72.01C35.686,72.211 36.025,72.39 36.361,72.57C36.631,72.713 36.9,72.856 37.163,73.005C39.229,74.123 41.096,75.066 42.943,75.924C43.155,76.023 43.385,76.058 43.615,76.025C45.811,75.705 48.208,75.075 50.215,74.287C50.791,74.06 50.768,73.25 50.19,73.028C47.957,72.17 45.781,71.223 43.625,70.176C42.078,69.423 40.052,68.41 38.087,67.26Z" style="fill:rgb(124,31,30);fill-rule:nonzero;"/>
            <path d="M54.604,74.314L54.28,74.484C53.978,74.646 53.673,74.806 53.36,74.951C50.137,76.388 46.772,77.396 43.348,77.953C39.027,78.639 35.015,78.674 30.699,78.046C30.482,78.014 30.253,78.045 30.052,78.134C28.045,79.019 26.108,79.801 24.208,80.494C23.354,80.805 23.423,82.025 24.298,82.269C34.155,85.01 44.786,84.407 54.338,80.476C54.77,80.3 55.186,80.125 55.601,79.949C58.378,78.697 61.072,77.145 63.59,75.344C67.552,72.529 71.037,69.105 73.959,65.158C74.121,64.94 74.186,64.652 74.139,64.384C73.826,62.62 73.438,61.016 72.987,59.534C72.752,58.758 71.72,58.651 71.29,59.338C67.259,65.779 61.488,70.954 54.604,74.314Z" style="fill:rgb(124,31,30);fill-rule:nonzero;"/>
            <path d="M64.032,77.284C62.501,78.427 60.844,79.446 59.118,80.317C58.554,80.602 58.654,81.451 59.268,81.599C66.208,83.268 73.319,84.111 80.469,84.111L82.527,84.111C82.906,84.111 83.212,83.804 83.212,83.426L83.212,81.369C83.212,72.716 81.973,64.133 79.529,55.859L79.159,54.555C78.109,51.201 76.811,47.811 75.306,44.494C74.745,43.235 74.141,41.975 73.48,40.685C73.236,40.208 72.556,40.185 72.291,40.65C71.617,41.833 70.634,43.399 69.842,44.524C69.635,44.819 69.599,45.198 69.751,45.524C71.187,48.594 72.435,51.72 73.461,54.83C73.533,55.054 73.611,55.271 73.688,55.486C73.773,55.722 73.856,55.957 73.931,56.192C74.719,58.732 75.422,61.559 76.081,64.843C76.962,69.292 77.473,73.468 77.645,77.61L77.686,78.606L76.692,78.56C72.808,78.383 68.777,77.902 64.701,77.129C64.466,77.085 64.225,77.141 64.032,77.284Z" style="fill:rgb(124,31,30);fill-rule:nonzero;"/>
            <path d="M0.725,89.274L88.375,89.274L88.375,1.624L0.725,1.624L0.725,89.274ZM89.102,90L0,90L0,0.899L89.102,0.899L89.102,90Z" style="fill:rgb(124,31,30);fill-rule:nonzero;"/>
            <path d="M12.402,15.538L12.402,7.867L10.599,15.538L8.905,15.538L7.102,7.867L7.102,15.538L5.662,15.538L5.662,6.79L8.312,6.79L9.825,13.796L11.313,6.79L13.963,6.79L13.963,15.538L12.402,15.538Z" style="fill:rgb(124,31,30);fill-rule:nonzero;"/>
            <path d="M18.403,12.598L18.137,12.598C17.734,12.598 17.436,12.683 17.242,12.852C17.048,13.022 16.952,13.312 16.952,13.724C16.952,13.836 16.96,13.95 16.976,14.062C16.992,14.175 17.024,14.276 17.072,14.365C17.121,14.454 17.186,14.528 17.266,14.589C17.347,14.649 17.456,14.68 17.593,14.68C17.77,14.68 17.911,14.631 18.016,14.534C18.121,14.437 18.202,14.318 18.258,14.177C18.314,14.036 18.353,13.885 18.373,13.724C18.393,13.562 18.403,13.417 18.403,13.288L18.403,12.598ZM18.501,15.538L18.476,14.849C18.137,15.389 17.629,15.66 16.952,15.66C16.669,15.66 16.433,15.611 16.244,15.514C16.054,15.417 15.901,15.287 15.784,15.121C15.667,14.956 15.582,14.762 15.53,14.54C15.477,14.318 15.451,14.082 15.451,13.832C15.451,13.34 15.53,12.951 15.687,12.665C15.844,12.378 16.056,12.164 16.322,12.023C16.588,11.882 16.901,11.793 17.26,11.757C17.619,11.721 18,11.703 18.403,11.703L18.403,11.388C18.403,11.243 18.399,11.102 18.392,10.965C18.383,10.828 18.359,10.705 18.319,10.596C18.278,10.487 18.216,10.398 18.131,10.33C18.046,10.261 17.927,10.227 17.774,10.227C17.516,10.227 17.336,10.305 17.236,10.462C17.135,10.62 17.085,10.811 17.085,11.038L17.085,11.134L15.608,11.134L15.608,11.025C15.608,10.679 15.671,10.394 15.796,10.172C15.921,9.951 16.088,9.775 16.298,9.646C16.508,9.517 16.746,9.426 17.012,9.374C17.278,9.321 17.557,9.295 17.847,9.295C18.226,9.295 18.543,9.335 18.797,9.416C19.051,9.497 19.256,9.622 19.414,9.791C19.571,9.96 19.684,10.176 19.752,10.438C19.821,10.701 19.856,11.013 19.856,11.376L19.856,13.506C19.856,13.845 19.861,14.184 19.874,14.522C19.886,14.861 19.912,15.2 19.952,15.538L18.501,15.538Z" style="fill:rgb(124,31,30);fill-rule:nonzero;"/>
            <path d="M23.757,15.599C23.616,15.607 23.473,15.611 23.328,15.611C23.005,15.611 22.735,15.585 22.517,15.533C22.299,15.48 22.126,15.389 21.997,15.26C21.868,15.131 21.775,14.96 21.718,14.746C21.662,14.532 21.634,14.264 21.634,13.941L21.634,10.42L20.823,10.42L20.823,9.44L21.634,9.44L21.634,8.399L23.134,7.783L23.134,9.44L24.09,9.44L24.09,10.42L23.134,10.42L23.134,13.724C23.134,13.861 23.14,13.982 23.152,14.086C23.165,14.191 23.192,14.278 23.237,14.347C23.281,14.415 23.346,14.468 23.431,14.504C23.515,14.54 23.626,14.559 23.763,14.559C23.828,14.559 23.895,14.555 23.963,14.546C24.031,14.538 24.102,14.53 24.175,14.522L24.175,15.551C24.038,15.575 23.898,15.591 23.757,15.599Z" style="fill:rgb(124,31,30);fill-rule:nonzero;"/>
            <path d="M27.569,15.599C27.428,15.607 27.285,15.611 27.14,15.611C26.817,15.611 26.547,15.585 26.329,15.533C26.111,15.48 25.938,15.389 25.809,15.26C25.68,15.131 25.587,14.96 25.53,14.746C25.474,14.532 25.446,14.264 25.446,13.941L25.446,10.42L24.635,10.42L24.635,9.44L25.446,9.44L25.446,8.399L26.946,7.783L26.946,9.44L27.902,9.44L27.902,10.42L26.946,10.42L26.946,13.724C26.946,13.861 26.952,13.982 26.964,14.086C26.977,14.191 27.004,14.278 27.049,14.347C27.093,14.415 27.158,14.468 27.243,14.504C27.327,14.54 27.438,14.559 27.575,14.559C27.64,14.559 27.707,14.555 27.775,14.546C27.843,14.538 27.914,14.53 27.987,14.522L27.987,15.551C27.85,15.575 27.71,15.591 27.569,15.599Z" style="fill:rgb(124,31,30);fill-rule:nonzero;"/>
            <path d="M31.81,11.824L31.81,11.413C31.81,11.275 31.798,11.134 31.773,10.989C31.742,10.779 31.68,10.608 31.587,10.475C31.496,10.342 31.334,10.275 31.102,10.275C30.862,10.275 30.688,10.348 30.58,10.493C30.472,10.638 30.398,10.832 30.358,11.074C30.342,11.195 30.33,11.314 30.322,11.431C30.314,11.548 30.31,11.679 30.31,11.824L31.81,11.824ZM30.31,12.659L30.31,13.203C30.31,13.727 30.366,14.109 30.478,14.347C30.589,14.585 30.79,14.704 31.078,14.704C31.238,14.704 31.366,14.669 31.462,14.601C31.558,14.532 31.634,14.441 31.69,14.329C31.746,14.216 31.782,14.089 31.798,13.947C31.814,13.806 31.822,13.663 31.822,13.518L33.25,13.518C33.217,14.276 33.032,14.827 32.693,15.169C32.355,15.513 31.814,15.684 31.072,15.684C30.54,15.684 30.122,15.601 29.819,15.435C29.517,15.27 29.291,15.044 29.142,14.758C28.993,14.472 28.9,14.139 28.864,13.76C28.827,13.381 28.809,12.977 28.809,12.55C28.809,12.13 28.834,11.725 28.882,11.334C28.93,10.943 29.035,10.596 29.196,10.293C29.357,9.991 29.594,9.749 29.904,9.567C30.215,9.386 30.632,9.295 31.157,9.295C31.689,9.295 32.098,9.388 32.385,9.573C32.671,9.759 32.881,10.007 33.014,10.317C33.147,10.628 33.226,10.985 33.25,11.388C33.274,11.791 33.286,12.215 33.286,12.659L30.31,12.659Z" style="fill:rgb(124,31,30);fill-rule:nonzero;"/>
            <path d="M37.558,11.884C37.558,11.691 37.554,11.497 37.545,11.304C37.537,11.11 37.509,10.936 37.46,10.783C37.411,10.63 37.332,10.507 37.223,10.414C37.113,10.322 36.96,10.275 36.765,10.275C36.554,10.275 36.39,10.332 36.272,10.444C36.154,10.558 36.068,10.697 36.016,10.862C35.963,11.027 35.932,11.205 35.924,11.394C35.916,11.584 35.912,11.755 35.912,11.909L35.912,13.119C35.912,13.272 35.914,13.441 35.918,13.627C35.922,13.812 35.951,13.984 36.003,14.141C36.056,14.298 36.14,14.432 36.253,14.54C36.367,14.649 36.534,14.704 36.753,14.704C36.956,14.704 37.113,14.653 37.223,14.552C37.332,14.452 37.411,14.327 37.46,14.177C37.509,14.028 37.537,13.865 37.545,13.687C37.554,13.51 37.558,13.345 37.558,13.191L37.558,11.884ZM39.082,12.308C39.082,12.808 39.06,13.266 39.016,13.681C38.971,14.097 38.871,14.452 38.713,14.746C38.556,15.04 38.324,15.27 38.018,15.435C37.711,15.601 37.292,15.684 36.759,15.684C36.21,15.684 35.781,15.605 35.47,15.448C35.16,15.29 34.926,15.071 34.769,14.788C34.611,14.506 34.512,14.171 34.472,13.784C34.432,13.397 34.412,12.969 34.412,12.501C34.412,12.074 34.436,11.666 34.484,11.279C34.533,10.892 34.64,10.551 34.805,10.257C34.97,9.962 35.21,9.728 35.525,9.555C35.839,9.382 36.263,9.295 36.795,9.295C37.32,9.295 37.735,9.368 38.042,9.513C38.348,9.658 38.578,9.864 38.731,10.13C38.884,10.396 38.981,10.715 39.022,11.086C39.062,11.457 39.082,11.864 39.082,12.308Z" style="fill:rgb(124,31,30);fill-rule:nonzero;"/>
            <path d="M48.641,13.288C48.641,13.74 48.574,14.119 48.443,14.425C48.311,14.732 48.125,14.98 47.885,15.169C47.645,15.359 47.357,15.496 47.023,15.581C46.689,15.665 46.322,15.708 45.918,15.708C45.418,15.708 44.997,15.66 44.654,15.563C44.311,15.466 44.033,15.309 43.819,15.091C43.606,14.873 43.452,14.593 43.359,14.25C43.267,13.907 43.22,13.49 43.22,12.997L43.22,12.901L44.866,12.901L44.866,13.01C44.866,13.203 44.876,13.391 44.896,13.572C44.916,13.754 44.963,13.915 45.035,14.056C45.108,14.198 45.215,14.31 45.356,14.395C45.497,14.48 45.689,14.522 45.932,14.522C46.285,14.522 46.557,14.427 46.742,14.238C46.928,14.048 47.02,13.776 47.02,13.421C47.02,13.236 46.986,13.072 46.922,12.931C46.857,12.79 46.766,12.663 46.648,12.55C46.531,12.437 46.393,12.328 46.234,12.223C46.076,12.119 45.904,12.01 45.717,11.896L45.047,11.485C44.807,11.332 44.583,11.179 44.375,11.025C44.166,10.872 43.986,10.701 43.834,10.511C43.682,10.322 43.562,10.102 43.474,9.852C43.385,9.602 43.341,9.307 43.341,8.968C43.341,8.541 43.408,8.178 43.541,7.879C43.674,7.581 43.862,7.339 44.104,7.153C44.346,6.968 44.632,6.832 44.963,6.748C45.293,6.663 45.656,6.621 46.051,6.621C46.447,6.621 46.801,6.659 47.111,6.736C47.422,6.812 47.684,6.939 47.897,7.117C48.111,7.294 48.272,7.526 48.381,7.812C48.49,8.099 48.545,8.448 48.545,8.859L48.545,9.198L46.936,9.198L46.936,8.98C46.936,8.819 46.922,8.668 46.898,8.527C46.875,8.386 46.828,8.26 46.758,8.151C46.689,8.042 46.592,7.958 46.467,7.897C46.34,7.837 46.176,7.807 45.973,7.807C45.648,7.807 45.399,7.901 45.225,8.091C45.05,8.281 44.963,8.529 44.963,8.835C44.963,9.013 44.997,9.17 45.065,9.307C45.134,9.444 45.225,9.571 45.338,9.688C45.451,9.805 45.582,9.914 45.731,10.015C45.881,10.116 46.039,10.214 46.209,10.311L46.789,10.662C47.072,10.832 47.328,10.997 47.559,11.158C47.787,11.32 47.984,11.497 48.145,11.691C48.307,11.884 48.43,12.108 48.514,12.362C48.6,12.616 48.641,12.925 48.641,13.288Z" style="fill:rgb(124,31,30);fill-rule:nonzero;"/>
            <path d="M52.767,15.538L52.767,11.449C52.767,11.295 52.763,11.148 52.755,11.007C52.747,10.866 52.721,10.741 52.677,10.632C52.632,10.523 52.564,10.436 52.471,10.372C52.378,10.308 52.247,10.275 52.077,10.275C51.933,10.275 51.807,10.311 51.702,10.384C51.598,10.457 51.511,10.553 51.442,10.674C51.373,10.795 51.321,10.933 51.285,11.086C51.248,11.239 51.231,11.396 51.231,11.558L51.231,15.538L49.73,15.538L49.73,10.433C49.73,10.263 49.728,10.096 49.724,9.93C49.72,9.765 49.706,9.602 49.682,9.44L51.194,9.44L51.206,10.118C51.367,9.884 51.567,9.688 51.805,9.531C52.043,9.374 52.344,9.295 52.707,9.295C53.013,9.295 53.268,9.335 53.469,9.416C53.67,9.497 53.83,9.616 53.947,9.773C54.064,9.93 54.147,10.124 54.195,10.353C54.243,10.583 54.268,10.852 54.268,11.158L54.268,15.538L52.767,15.538Z" style="fill:rgb(124,31,30);fill-rule:nonzero;"/>
            <path d="M58.637,11.884C58.637,11.691 58.632,11.497 58.624,11.304C58.616,11.11 58.588,10.936 58.539,10.783C58.49,10.63 58.411,10.507 58.301,10.414C58.191,10.322 58.039,10.275 57.844,10.275C57.633,10.275 57.468,10.332 57.351,10.444C57.232,10.558 57.148,10.697 57.095,10.862C57.041,11.027 57.011,11.205 57.003,11.394C56.995,11.584 56.99,11.755 56.99,11.909L56.99,13.119C56.99,13.272 56.992,13.441 56.997,13.627C57.001,13.812 57.029,13.984 57.082,14.141C57.135,14.298 57.218,14.432 57.332,14.54C57.445,14.649 57.612,14.704 57.832,14.704C58.035,14.704 58.191,14.653 58.301,14.552C58.411,14.452 58.49,14.327 58.539,14.177C58.588,14.028 58.616,13.865 58.624,13.687C58.632,13.51 58.637,13.345 58.637,13.191L58.637,11.884ZM60.161,12.308C60.161,12.808 60.139,13.266 60.095,13.681C60.05,14.097 59.949,14.452 59.792,14.746C59.635,15.04 59.402,15.27 59.096,15.435C58.789,15.601 58.37,15.684 57.838,15.684C57.289,15.684 56.859,15.605 56.549,15.448C56.238,15.29 56.005,15.071 55.848,14.788C55.689,14.506 55.591,14.171 55.551,13.784C55.511,13.397 55.49,12.969 55.49,12.501C55.49,12.074 55.515,11.666 55.563,11.279C55.611,10.892 55.718,10.551 55.884,10.257C56.049,9.962 56.289,9.728 56.604,9.555C56.918,9.382 57.342,9.295 57.874,9.295C58.398,9.295 58.814,9.368 59.12,9.513C59.427,9.658 59.656,9.864 59.81,10.13C59.963,10.396 60.06,10.715 60.101,11.086C60.141,11.457 60.161,11.864 60.161,12.308Z" style="fill:rgb(124,31,30);fill-rule:nonzero;"/>
            <path d="M61.02,15.538L61.02,14.476L63.379,10.42L61.141,10.42L61.141,9.44L64.964,9.44L64.964,10.447L62.605,14.559L64.977,14.559L64.977,15.538L61.02,15.538Z" style="fill:rgb(124,31,30);fill-rule:nonzero;"/>
            <path d="M65.738,15.538L65.738,14.476L68.098,10.42L65.859,10.42L65.859,9.44L69.683,9.44L69.683,10.447L67.323,14.559L69.695,14.559L69.695,15.538L65.738,15.538Z" style="fill:rgb(124,31,30);fill-rule:nonzero;"/>
            <path d="M70.988,15.538L70.988,9.44L72.489,9.44L72.489,15.538L70.988,15.538ZM70.988,8.182L70.988,6.887L72.489,6.887L72.489,8.182L70.988,8.182Z" style="fill:rgb(124,31,30);fill-rule:nonzero;"/>
            <rect x="5.589" y="18.32" width="0.726" height="8.748" style="fill:rgb(124,31,30);fill-rule:nonzero;"/>
            <path d="M11.252,27.068L11.252,23.269C11.252,23.067 11.248,22.857 11.24,22.64C11.232,22.422 11.193,22.225 11.125,22.047C11.057,21.87 10.95,21.724 10.804,21.611C10.659,21.498 10.449,21.442 10.175,21.442C9.893,21.442 9.661,21.502 9.479,21.623C9.298,21.744 9.153,21.904 9.044,22.101C8.935,22.299 8.86,22.518 8.82,22.761C8.78,23.003 8.76,23.245 8.76,23.487L8.76,27.068L8.07,27.068L8.07,22.482C8.07,22.232 8.065,21.98 8.058,21.726C8.05,21.472 8.038,21.22 8.021,20.97L8.687,20.97L8.699,21.805C8.884,21.506 9.108,21.27 9.371,21.097C9.633,20.924 9.945,20.837 10.308,20.837C10.615,20.837 10.873,20.885 11.083,20.982C11.293,21.079 11.46,21.214 11.585,21.387C11.71,21.561 11.801,21.765 11.857,21.998C11.914,22.232 11.942,22.487 11.942,22.761L11.942,27.068L11.252,27.068Z" style="fill:rgb(124,31,30);fill-rule:nonzero;"/>
            <path d="M16.516,23.692C16.516,23.442 16.505,23.184 16.485,22.918C16.465,22.652 16.41,22.408 16.321,22.186C16.232,21.964 16.098,21.781 15.92,21.635C15.742,21.49 15.495,21.417 15.179,21.417C14.846,21.417 14.591,21.51 14.413,21.696C14.234,21.882 14.105,22.109 14.024,22.379C13.942,22.65 13.896,22.936 13.884,23.239C13.872,23.541 13.866,23.809 13.866,24.043C13.866,24.302 13.872,24.574 13.884,24.86C13.896,25.146 13.94,25.407 14.018,25.641C14.094,25.874 14.216,26.068 14.382,26.221C14.548,26.374 14.785,26.451 15.093,26.451C15.466,26.451 15.75,26.356 15.944,26.167C16.139,25.977 16.278,25.744 16.364,25.465C16.449,25.187 16.495,24.889 16.503,24.57C16.511,24.251 16.516,23.958 16.516,23.692ZM17.205,20.97C17.197,21.156 17.189,21.329 17.181,21.49C17.173,21.652 17.169,21.825 17.169,22.011L17.169,27.334C17.169,28.036 17.016,28.571 16.71,28.938C16.405,29.305 15.878,29.488 15.13,29.488C13.957,29.488 13.357,28.903 13.334,27.734L14.047,27.734C14.047,28.121 14.128,28.417 14.289,28.623C14.45,28.829 14.737,28.932 15.148,28.932C15.455,28.932 15.697,28.881 15.875,28.781C16.052,28.681 16.185,28.544 16.273,28.372C16.362,28.199 16.419,27.998 16.443,27.769C16.467,27.54 16.48,27.297 16.48,27.04L16.48,26.269C16.293,26.536 16.09,26.726 15.868,26.838C15.647,26.952 15.374,27.008 15.051,27.008C14.616,27.008 14.273,26.919 14.023,26.742C13.773,26.564 13.585,26.332 13.46,26.046C13.335,25.76 13.256,25.441 13.225,25.09C13.192,24.739 13.176,24.39 13.176,24.043C13.176,23.664 13.198,23.283 13.243,22.9C13.287,22.517 13.377,22.172 13.515,21.865C13.652,21.559 13.845,21.311 14.096,21.121C14.346,20.932 14.676,20.837 15.088,20.837C15.483,20.837 15.784,20.905 15.989,21.042C16.195,21.18 16.378,21.397 16.54,21.696L16.552,20.97L17.205,20.97Z" style="fill:rgb(124,31,30);fill-rule:nonzero;"/>
            <path d="M21.985,23.571L21.985,23.226C21.985,23.078 21.98,22.942 21.973,22.821C21.956,22.636 21.926,22.458 21.882,22.289C21.837,22.12 21.769,21.968 21.676,21.835C21.584,21.702 21.464,21.595 21.319,21.515C21.174,21.434 20.993,21.393 20.774,21.393C20.323,21.393 19.998,21.526 19.801,21.793C19.603,22.059 19.484,22.386 19.444,22.773C19.419,23.039 19.407,23.305 19.407,23.571L21.985,23.571ZM19.395,24.128L19.395,24.479C19.395,24.818 19.411,25.12 19.444,25.386C19.476,25.653 19.539,25.878 19.631,26.064C19.724,26.249 19.855,26.391 20.024,26.488C20.194,26.584 20.416,26.633 20.69,26.633C20.948,26.633 21.16,26.595 21.325,26.518C21.49,26.441 21.62,26.338 21.712,26.209C21.805,26.08 21.87,25.929 21.906,25.755C21.942,25.582 21.964,25.398 21.973,25.205L22.662,25.205C22.646,25.487 22.606,25.747 22.541,25.985C22.477,26.224 22.368,26.433 22.214,26.615C22.061,26.796 21.861,26.937 21.616,27.038C21.37,27.139 21.061,27.189 20.69,27.189C20.254,27.189 19.905,27.115 19.643,26.965C19.381,26.816 19.179,26.613 19.038,26.354C18.897,26.096 18.802,25.796 18.754,25.453C18.706,25.11 18.681,24.745 18.681,24.358C18.681,23.955 18.693,23.543 18.718,23.123C18.742,22.705 18.818,22.325 18.948,21.986C19.077,21.647 19.282,21.372 19.564,21.158C19.847,20.944 20.246,20.837 20.763,20.837C21.15,20.837 21.468,20.899 21.718,21.024C21.968,21.149 22.166,21.325 22.312,21.551C22.457,21.777 22.557,22.041 22.614,22.343C22.67,22.646 22.699,22.975 22.699,23.33L22.699,24.128L19.395,24.128Z" style="fill:rgb(124,31,30);fill-rule:nonzero;"/>
            <path d="M27.273,23.692C27.273,23.442 27.262,23.184 27.242,22.918C27.222,22.652 27.167,22.408 27.078,22.186C26.989,21.964 26.855,21.781 26.677,21.635C26.499,21.49 26.252,21.417 25.936,21.417C25.603,21.417 25.348,21.51 25.169,21.696C24.991,21.882 24.861,22.109 24.781,22.379C24.699,22.65 24.653,22.936 24.641,23.239C24.628,23.541 24.623,23.809 24.623,24.043C24.623,24.302 24.628,24.574 24.641,24.86C24.653,25.146 24.697,25.407 24.774,25.641C24.851,25.874 24.973,26.068 25.139,26.221C25.305,26.374 25.542,26.451 25.85,26.451C26.223,26.451 26.506,26.356 26.701,26.167C26.896,25.977 27.035,25.744 27.121,25.465C27.206,25.187 27.252,24.889 27.26,24.57C27.268,24.251 27.273,23.958 27.273,23.692ZM27.962,20.97C27.954,21.156 27.946,21.329 27.938,21.49C27.93,21.652 27.926,21.825 27.926,22.011L27.926,27.334C27.926,28.036 27.773,28.571 27.467,28.938C27.162,29.305 26.635,29.488 25.887,29.488C24.713,29.488 24.114,28.903 24.09,27.734L24.804,27.734C24.804,28.121 24.885,28.417 25.046,28.623C25.207,28.829 25.494,28.932 25.905,28.932C26.211,28.932 26.454,28.881 26.631,28.781C26.809,28.681 26.941,28.544 27.03,28.372C27.119,28.199 27.176,27.998 27.2,27.769C27.224,27.54 27.236,27.297 27.236,27.04L27.236,26.269C27.05,26.536 26.847,26.726 26.625,26.838C26.403,26.952 26.131,27.008 25.808,27.008C25.373,27.008 25.03,26.919 24.78,26.742C24.53,26.564 24.342,26.332 24.217,26.046C24.092,25.76 24.013,25.441 23.981,25.09C23.949,24.739 23.933,24.39 23.933,24.043C23.933,23.664 23.955,23.283 24,22.9C24.043,22.517 24.134,22.172 24.272,21.865C24.409,21.559 24.602,21.311 24.853,21.121C25.103,20.932 25.433,20.837 25.845,20.837C26.24,20.837 26.541,20.905 26.746,21.042C26.952,21.18 27.135,21.397 27.296,21.696L27.309,20.97L27.962,20.97Z" style="fill:rgb(124,31,30);fill-rule:nonzero;"/>
            <path d="M32.73,27.068L32.73,23.269C32.73,23.067 32.726,22.857 32.718,22.64C32.71,22.422 32.671,22.225 32.603,22.047C32.534,21.87 32.427,21.724 32.282,21.611C32.137,21.498 31.927,21.442 31.653,21.442C31.37,21.442 31.139,21.502 30.957,21.623C30.775,21.744 30.63,21.904 30.522,22.101C30.413,22.299 30.338,22.518 30.297,22.761C30.257,23.003 30.237,23.245 30.237,23.487L30.237,27.068L29.547,27.068L29.547,22.482C29.547,22.232 29.543,21.98 29.535,21.726C29.527,21.472 29.515,21.22 29.499,20.97L30.165,20.97L30.177,21.805C30.362,21.506 30.586,21.27 30.848,21.097C31.11,20.924 31.423,20.837 31.786,20.837C32.092,20.837 32.351,20.885 32.56,20.982C32.77,21.079 32.937,21.214 33.063,21.387C33.188,21.561 33.278,21.765 33.335,21.998C33.391,22.232 33.419,22.487 33.419,22.761L33.419,27.068L32.73,27.068Z" style="fill:rgb(124,31,30);fill-rule:nonzero;"/>
            <path d="M38.09,23.571L38.09,23.226C38.09,23.078 38.085,22.942 38.078,22.821C38.061,22.636 38.031,22.458 37.987,22.289C37.942,22.12 37.874,21.968 37.781,21.835C37.689,21.702 37.569,21.595 37.424,21.515C37.279,21.434 37.098,21.393 36.879,21.393C36.428,21.393 36.103,21.526 35.906,21.793C35.708,22.059 35.589,22.386 35.549,22.773C35.524,23.039 35.512,23.305 35.512,23.571L38.09,23.571ZM35.5,24.128L35.5,24.479C35.5,24.818 35.516,25.12 35.549,25.386C35.581,25.653 35.644,25.878 35.736,26.064C35.829,26.249 35.96,26.391 36.129,26.488C36.299,26.584 36.521,26.633 36.795,26.633C37.053,26.633 37.265,26.595 37.43,26.518C37.595,26.441 37.725,26.338 37.817,26.209C37.91,26.08 37.975,25.929 38.011,25.755C38.047,25.582 38.069,25.398 38.078,25.205L38.767,25.205C38.751,25.487 38.71,25.747 38.646,25.985C38.582,26.224 38.473,26.433 38.319,26.615C38.166,26.796 37.966,26.937 37.721,27.038C37.475,27.139 37.166,27.189 36.795,27.189C36.359,27.189 36.01,27.115 35.748,26.965C35.486,26.816 35.284,26.613 35.143,26.354C35.002,26.096 34.907,25.796 34.859,25.453C34.811,25.11 34.786,24.745 34.786,24.358C34.786,23.955 34.798,23.543 34.823,23.123C34.847,22.705 34.923,22.325 35.053,21.986C35.182,21.647 35.387,21.372 35.669,21.158C35.952,20.944 36.351,20.837 36.868,20.837C37.255,20.837 37.573,20.899 37.823,21.024C38.073,21.149 38.271,21.325 38.417,21.551C38.562,21.777 38.662,22.041 38.719,22.343C38.775,22.646 38.804,22.975 38.804,23.33L38.804,24.128L35.5,24.128Z" style="fill:rgb(124,31,30);fill-rule:nonzero;"/>
            <path d="M42.289,21.526C41.813,21.526 41.456,21.678 41.218,21.98C40.98,22.283 40.861,22.656 40.861,23.1L40.861,27.068L40.171,27.068L40.171,22.083C40.171,21.897 40.167,21.712 40.159,21.526C40.151,21.341 40.139,21.156 40.123,20.97L40.788,20.97L40.8,21.781C40.961,21.49 41.175,21.26 41.441,21.091C41.708,20.921 42.002,20.837 42.325,20.837L42.391,20.837C42.419,20.837 42.446,20.841 42.47,20.849L42.47,21.538C42.429,21.531 42.369,21.526 42.289,21.526Z" style="fill:rgb(124,31,30);fill-rule:nonzero;"/>
            <path d="M46.548,23.571L46.548,23.226C46.548,23.078 46.543,22.942 46.535,22.821C46.52,22.636 46.489,22.458 46.445,22.289C46.4,22.12 46.332,21.968 46.239,21.835C46.147,21.702 46.027,21.595 45.883,21.515C45.736,21.434 45.556,21.393 45.337,21.393C44.886,21.393 44.561,21.526 44.364,21.793C44.166,22.059 44.047,22.386 44.007,22.773C43.982,23.039 43.97,23.305 43.97,23.571L46.548,23.571ZM43.958,24.128L43.958,24.479C43.958,24.818 43.974,25.12 44.007,25.386C44.039,25.653 44.102,25.878 44.194,26.064C44.287,26.249 44.418,26.391 44.587,26.488C44.757,26.584 44.979,26.633 45.253,26.633C45.511,26.633 45.723,26.595 45.889,26.518C46.053,26.441 46.183,26.338 46.275,26.209C46.368,26.08 46.433,25.929 46.469,25.755C46.506,25.582 46.527,25.398 46.535,25.205L47.225,25.205C47.209,25.487 47.168,25.747 47.104,25.985C47.039,26.224 46.932,26.433 46.777,26.615C46.625,26.796 46.424,26.937 46.179,27.038C45.933,27.139 45.624,27.189 45.253,27.189C44.817,27.189 44.468,27.115 44.206,26.965C43.944,26.816 43.742,26.613 43.601,26.354C43.46,26.096 43.365,25.796 43.317,25.453C43.269,25.11 43.244,24.745 43.244,24.358C43.244,23.955 43.256,23.543 43.281,23.123C43.305,22.705 43.381,22.325 43.511,21.986C43.64,21.647 43.845,21.372 44.127,21.158C44.41,20.944 44.809,20.837 45.326,20.837C45.713,20.837 46.031,20.899 46.281,21.024C46.531,21.149 46.729,21.325 46.875,21.551C47.02,21.777 47.121,22.041 47.178,22.343C47.232,22.646 47.262,22.975 47.262,23.33L47.262,24.128L43.958,24.128Z" style="fill:rgb(124,31,30);fill-rule:nonzero;"/>
        </g>
    </g>
</svg>
