<?xml version="1.0" encoding="UTF-8"?>
<svg id="Layer_1" xmlns="http://www.w3.org/2000/svg" version="1.1" viewBox="0 0 89.1 89.1">
  <!-- Generator: Adobe Illustrator 29.2.1, SVG Export Plug-In . SVG Version: 2.1.0 Build 116)  -->
  <defs>
    <style>
      .st0 {
        fill: #7c201e;
      }
    </style>
  </defs>
  <path class="st0" d="M69.3,29.8c-1,2-1.9,3.8-2.9,5.5-.2.4-.5.8-.7,1.1-.2.2-.3.5-.4.7-6.5,10.5-15.2,19.5-25.4,26.3-.6.4-.6,1.3,0,1.7,1.1.7,2.5,1.4,3.6,1.9s.7.1,1,0c9.2-6.4,17-14.3,23.3-23.6,1.3-2,2.4-3.8,3.4-5.4.2-.4.4-.8.6-1.1l.4-.7c1.1-1.9,2.1-3.9,2.9-5.8.1-.2.1-.5,0-.8-.3-1.9-.8-3.7-1.4-5.5-.3-.9-1.6-.9-1.9,0-.8,1.9-1.6,3.8-2.5,5.6Z"/>
  <path class="st0" d="M38.1,66.4c-.4-.2-.8-.5-1.2-.7-.2-.1-.5-.3-.7-.4-10.6-6.5-19.8-15.5-26.7-25.9-.3-.4-.9-.4-1.1,0-.6,1-1.5,2.7-2.1,4-.2.3-.1.7,0,1,6.4,9.2,14.3,17,23.5,23.3,1.9,1.3,3.7,2.4,5.4,3.4.3.2.7.4,1,.6.3.1.5.3.8.4,2.1,1.1,3.9,2.1,5.8,2.9.2,0,.4.1.7.1,2.2-.3,4.6-1,6.6-1.7.6-.2.6-1,0-1.3-2.2-.9-4.4-1.8-6.6-2.9-1.5-.8-3.6-1.8-5.5-2.9Z"/>
  <path class="st0" d="M54.6,73.4l-.3.2c-.3.2-.6.3-.9.5-3.2,1.4-6.6,2.4-10,3-4.3.7-8.3.7-12.6,0-.2,0-.4,0-.6,0-2,.9-3.9,1.7-5.8,2.4-.9.3-.8,1.5,0,1.8,9.9,2.7,20.5,2.1,30-1.8.4-.2.8-.4,1.3-.5,2.8-1.3,5.5-2.8,8-4.6,4-2.8,7.4-6.2,10.4-10.2.2-.2.2-.5.2-.8-.3-1.8-.7-3.4-1.2-4.9s-1.3-.9-1.7-.2c-4,6.4-9.8,11.6-16.7,15Z"/>
  <path class="st0" d="M64,76.4c-1.5,1.1-3.2,2.2-4.9,3-.6.3-.5,1.1.2,1.3,6.9,1.7,14.1,2.5,21.2,2.5h2.1c.4,0,.7-.3.7-.7v-2.1c0-8.7-1.2-17.2-3.7-25.5l-.4-1.3c-1.1-3.4-2.3-6.7-3.9-10.1-.6-1.3-1.2-2.5-1.8-3.8s-.9-.5-1.2,0c-.7,1.2-1.7,2.7-2.4,3.9s-.2.7,0,1c1.4,3.1,2.7,6.2,3.7,9.3,0,.2.1.4.2.7,0,.2.2.5.2.7.8,2.5,1.5,5.4,2.1,8.7.9,4.4,1.4,8.6,1.6,12.8v1s-1,0-1,0c-3.9-.2-7.9-.7-12-1.4-.2,0-.5,0-.7.2Z"/>
  <path class="st0" d="M89.1,89.1H0V0h89.1v89.1ZM.7,88.4h87.6V.7H.7v87.6Z"/>
  <path class="st0" d="M12.4,14.6v-7.7l-1.8,7.7h-1.7l-1.8-7.7v7.7h-1.4V5.9h2.6l1.5,7,1.5-7h2.6v8.7h-1.6Z"/>
  <path class="st0" d="M18.5,14.6v-.7c-.4.5-.9.8-1.5.8s-.5,0-.7-.1c-.2,0-.3-.2-.5-.4-.1-.2-.2-.4-.3-.6,0-.2,0-.5,0-.7,0-.5,0-.9.2-1.2.2-.3.4-.5.6-.6s.6-.2.9-.3c.4,0,.7,0,1.1,0v-.3c0-.1,0-.3,0-.4,0-.1,0-.3,0-.4,0-.1-.1-.2-.2-.3,0,0-.2-.1-.4-.1-.3,0-.4,0-.5.2-.1.2-.2.3-.2.6h0c0,0-1.5,0-1.5,0h0c0-.5,0-.7.2-1s.3-.4.5-.5c.2-.1.4-.2.7-.3.3,0,.5,0,.8,0s.7,0,1,.1c.3,0,.5.2.6.4.2.2.3.4.3.6,0,.3.1.6.1.9v2.1c0,.3,0,.7,0,1,0,.3,0,.7,0,1h-1.5ZM18.4,11.7h-.3c-.4,0-.7,0-.9.3-.2.2-.3.5-.3.9s0,.2,0,.3,0,.2,0,.3c0,0,.1.2.2.2s.2,0,.3,0,.3,0,.4-.1.2-.2.2-.4c0-.1,0-.3.1-.5,0-.2,0-.3,0-.4v-.7Z"/>
  <path class="st0" d="M23.8,14.7c-.1,0-.3,0-.4,0-.3,0-.6,0-.8,0-.2,0-.4-.1-.5-.3s-.2-.3-.3-.5,0-.5,0-.8v-3.5h-.8v-1h.8v-1l1.5-.6v1.7h1v1h-1v3.3c0,.1,0,.3,0,.4,0,.1,0,.2,0,.3,0,0,.1.1.2.2,0,0,.2,0,.3,0s.1,0,.2,0c0,0,.1,0,.2,0v1c-.1,0-.3,0-.4,0Z"/>
  <path class="st0" d="M27.6,14.7c-.1,0-.3,0-.4,0-.3,0-.6,0-.8,0-.2,0-.4-.1-.5-.3s-.2-.3-.3-.5,0-.5,0-.8v-3.5h-.8v-1h.8v-1l1.5-.6v1.7h1v1h-1v3.3c0,.1,0,.3,0,.4,0,.1,0,.2,0,.3,0,0,.1.1.2.2,0,0,.2,0,.3,0s.1,0,.2,0c0,0,.1,0,.2,0v1c-.1,0-.3,0-.4,0Z"/>
  <path class="st0" d="M30.3,11.8v.5c0,.5,0,.9.2,1.1.1.2.3.4.6.4s.3,0,.4-.1c0,0,.2-.2.2-.3,0-.1,0-.2.1-.4,0-.1,0-.3,0-.4h1.4c0,.8-.2,1.3-.6,1.7-.3.3-.9.5-1.6.5s-.9,0-1.3-.2c-.3-.2-.5-.4-.7-.7-.1-.3-.2-.6-.3-1,0-.4,0-.8,0-1.2s0-.8,0-1.2.2-.7.3-1c.2-.3.4-.5.7-.7.3-.2.7-.3,1.3-.3s.9,0,1.2.3c.3.2.5.4.6.7.1.3.2.7.2,1.1,0,.4,0,.8,0,1.3h-3ZM31.8,10.9v-.4c0-.1,0-.3,0-.4,0-.2,0-.4-.2-.5,0-.1-.3-.2-.5-.2s-.4,0-.5.2c-.1.1-.2.3-.2.6,0,.1,0,.2,0,.4,0,.1,0,.2,0,.4h1.5Z"/>
  <path class="st0" d="M39.1,11.4c0,.5,0,1,0,1.4s-.1.8-.3,1.1-.4.5-.7.7c-.3.2-.7.2-1.3.2s-1,0-1.3-.2-.5-.4-.7-.7-.3-.6-.3-1c0-.4,0-.8,0-1.3s0-.8,0-1.2.2-.7.3-1c.2-.3.4-.5.7-.7s.7-.3,1.3-.3.9,0,1.2.2c.3.1.5.4.7.6.2.3.2.6.3,1,0,.4,0,.8,0,1.2ZM37.6,11c0-.2,0-.4,0-.6,0-.2,0-.4,0-.5,0-.2-.1-.3-.2-.4-.1,0-.3-.1-.5-.1s-.4,0-.5.2c-.1.1-.2.3-.3.4,0,.2,0,.3,0,.5,0,.2,0,.4,0,.5v1.2c0,.2,0,.3,0,.5s0,.4,0,.5.1.3.2.4.3.2.5.2.4,0,.5-.2c.1-.1.2-.2.2-.4,0-.1,0-.3,0-.5,0-.2,0-.3,0-.5v-1.3Z"/>
  <path class="st0" d="M48.6,12.4c0,.5,0,.8-.2,1.1-.1.3-.3.6-.6.7-.2.2-.5.3-.9.4-.3,0-.7.1-1.1.1s-.9,0-1.3-.1c-.3,0-.6-.3-.8-.5-.2-.2-.4-.5-.5-.8s-.1-.8-.1-1.3h0c0,0,1.6,0,1.6,0h0c0,.3,0,.5,0,.7s0,.3.1.5c0,.1.2.3.3.3.1,0,.3.1.6.1.4,0,.6,0,.8-.3s.3-.5.3-.8,0-.3,0-.5-.2-.3-.3-.4c-.1-.1-.3-.2-.4-.3-.2-.1-.3-.2-.5-.3l-.7-.4c-.2-.2-.5-.3-.7-.5s-.4-.3-.5-.5c-.2-.2-.3-.4-.4-.7,0-.2-.1-.5-.1-.9s0-.8.2-1.1c.1-.3.3-.5.6-.7.2-.2.5-.3.9-.4.3,0,.7-.1,1.1-.1s.8,0,1.1.1.6.2.8.4c.2.2.4.4.5.7.1.3.2.6.2,1v.3h-1.6v-.2c0-.2,0-.3,0-.5s0-.3-.1-.4c0-.1-.2-.2-.3-.3-.1,0-.3,0-.5,0-.3,0-.6,0-.7.3-.2.2-.3.4-.3.7s0,.3.1.5.2.3.3.4c.1.1.2.2.4.3.2.1.3.2.5.3l.6.4c.3.2.5.3.8.5.2.2.4.3.6.5.2.2.3.4.4.7,0,.3.1.6.1.9Z"/>
  <path class="st0" d="M52.8,14.6v-4.1c0-.2,0-.3,0-.4s0-.3,0-.4c0-.1-.1-.2-.2-.3s-.2,0-.4,0-.3,0-.4.1c-.1,0-.2.2-.3.3,0,.1-.1.3-.2.4,0,.2,0,.3,0,.5v4h-1.5v-5.1c0-.2,0-.3,0-.5,0-.2,0-.3,0-.5h1.5v.7c.2-.2.4-.4.6-.6.2-.2.5-.2.9-.2s.6,0,.8.1.4.2.5.4c.1.2.2.4.2.6,0,.2,0,.5,0,.8v4.4h-1.5Z"/>
  <path class="st0" d="M60.2,11.4c0,.5,0,1,0,1.4,0,.4-.1.8-.3,1.1s-.4.5-.7.7c-.3.2-.7.2-1.3.2s-1,0-1.3-.2-.5-.4-.7-.7c-.2-.3-.3-.6-.3-1s0-.8,0-1.3,0-.8,0-1.2c0-.4.2-.7.3-1,.2-.3.4-.5.7-.7s.7-.3,1.3-.3.9,0,1.2.2c.3.1.5.4.7.6s.2.6.3,1c0,.4,0,.8,0,1.2ZM58.6,11c0-.2,0-.4,0-.6,0-.2,0-.4,0-.5,0-.2-.1-.3-.2-.4-.1,0-.3-.1-.5-.1s-.4,0-.5.2c-.1.1-.2.3-.3.4,0,.2,0,.3,0,.5s0,.4,0,.5v1.2c0,.2,0,.3,0,.5,0,.2,0,.4,0,.5s.1.3.2.4c.1.1.3.2.5.2s.4,0,.5-.2c.1-.1.2-.2.2-.4,0-.1,0-.3,0-.5,0-.2,0-.3,0-.5v-1.3Z"/>
  <path class="st0" d="M61,14.6v-1.1l2.4-4.1h-2.2v-1h3.8v1l-2.4,4.1h2.4v1h-4Z"/>
  <path class="st0" d="M65.7,14.6v-1.1l2.4-4.1h-2.2v-1h3.8v1l-2.4,4.1h2.4v1h-4Z"/>
  <path class="st0" d="M71,7.3v-1.3h1.5v1.3h-1.5ZM71,14.6v-6.1h1.5v6.1h-1.5Z"/>
  <path class="st0" d="M5.6,26.2v-8.7h.7v8.7h-.7Z"/>
  <path class="st0" d="M11.3,26.2v-3.8c0-.2,0-.4,0-.6,0-.2,0-.4-.1-.6,0-.2-.2-.3-.3-.4-.1-.1-.4-.2-.6-.2s-.5,0-.7.2c-.2.1-.3.3-.4.5-.1.2-.2.4-.2.7,0,.2,0,.5,0,.7v3.6h-.7v-4.6c0-.2,0-.5,0-.8,0-.3,0-.5,0-.8h.7v.8c.2-.3.4-.5.7-.7s.6-.3.9-.3.6,0,.8.1c.2,0,.4.2.5.4.1.2.2.4.3.6,0,.2,0,.5,0,.8v4.3h-.7Z"/>
  <path class="st0" d="M17.2,20.1c0,.2,0,.4,0,.5,0,.2,0,.3,0,.5v5.3c0,.7-.2,1.2-.5,1.6-.3.4-.8.6-1.6.6-1.2,0-1.8-.6-1.8-1.8h.7c0,.4,0,.7.2.9.2.2.4.3.9.3s.5,0,.7-.2c.2-.1.3-.2.4-.4,0-.2.1-.4.2-.6,0-.2,0-.5,0-.7v-.8c-.2.3-.4.5-.6.6-.2.1-.5.2-.8.2s-.8,0-1-.3-.4-.4-.6-.7c-.1-.3-.2-.6-.2-1,0-.4,0-.7,0-1s0-.8,0-1.1c0-.4.1-.7.3-1,.1-.3.3-.6.6-.7.2-.2.6-.3,1-.3s.7,0,.9.2.4.4.6.7v-.7h.7ZM16.5,22.8c0-.2,0-.5,0-.8,0-.3,0-.5-.2-.7,0-.2-.2-.4-.4-.6-.2-.1-.4-.2-.7-.2s-.6,0-.8.3c-.2.2-.3.4-.4.7,0,.3-.1.6-.1.9,0,.3,0,.6,0,.8s0,.5,0,.8c0,.3,0,.5.1.8,0,.2.2.4.4.6.2.2.4.2.7.2s.7,0,.9-.3c.2-.2.3-.4.4-.7,0-.3.1-.6.1-.9,0-.3,0-.6,0-.9Z"/>
  <path class="st0" d="M19.4,23.2v.4c0,.3,0,.6,0,.9,0,.3,0,.5.2.7,0,.2.2.3.4.4.2,0,.4.1.7.1s.5,0,.6-.1c.2,0,.3-.2.4-.3,0-.1.2-.3.2-.5,0-.2,0-.4,0-.6h.7c0,.3,0,.5-.1.8,0,.2-.2.4-.3.6-.2.2-.4.3-.6.4-.2.1-.6.2-.9.2s-.8,0-1-.2c-.3-.1-.5-.4-.6-.6s-.2-.6-.3-.9,0-.7,0-1.1,0-.8,0-1.2c0-.4.1-.8.2-1.1.1-.3.3-.6.6-.8s.7-.3,1.2-.3.7,0,1,.2.4.3.6.5c.1.2.2.5.3.8,0,.3,0,.6,0,1v.8h-3.3ZM22,22.7v-.3c0-.1,0-.3,0-.4,0-.2,0-.4,0-.5s-.1-.3-.2-.5c0-.1-.2-.2-.4-.3-.1,0-.3-.1-.5-.1-.5,0-.8.1-1,.4-.2.3-.3.6-.4,1,0,.3,0,.5,0,.8h2.6Z"/>
  <path class="st0" d="M28,20.1c0,.2,0,.4,0,.5,0,.2,0,.3,0,.5v5.3c0,.7-.2,1.2-.5,1.6-.3.4-.8.6-1.6.6-1.2,0-1.8-.6-1.8-1.8h.7c0,.4,0,.7.2.9.2.2.4.3.9.3s.5,0,.7-.2c.2-.1.3-.2.4-.4,0-.2.1-.4.2-.6,0-.2,0-.5,0-.7v-.8c-.2.3-.4.5-.6.6-.2.1-.5.2-.8.2s-.8,0-1-.3-.4-.4-.6-.7c-.1-.3-.2-.6-.2-1,0-.4,0-.7,0-1s0-.8,0-1.1c0-.4.1-.7.3-1,.1-.3.3-.6.6-.7.2-.2.6-.3,1-.3s.7,0,.9.2.4.4.6.7v-.7h.7ZM27.3,22.8c0-.2,0-.5,0-.8,0-.3,0-.5-.2-.7,0-.2-.2-.4-.4-.6-.2-.1-.4-.2-.7-.2s-.6,0-.8.3c-.2.2-.3.4-.4.7,0,.3-.1.6-.1.9,0,.3,0,.6,0,.8s0,.5,0,.8c0,.3,0,.5.1.8,0,.2.2.4.4.6.2.2.4.2.7.2s.7,0,.9-.3c.2-.2.3-.4.4-.7,0-.3.1-.6.1-.9,0-.3,0-.6,0-.9Z"/>
  <path class="st0" d="M32.7,26.2v-3.8c0-.2,0-.4,0-.6,0-.2,0-.4-.1-.6,0-.2-.2-.3-.3-.4-.1-.1-.4-.2-.6-.2s-.5,0-.7.2c-.2.1-.3.3-.4.5-.1.2-.2.4-.2.7,0,.2,0,.5,0,.7v3.6h-.7v-4.6c0-.2,0-.5,0-.8,0-.3,0-.5,0-.8h.7v.8c.2-.3.4-.5.7-.7s.6-.3.9-.3.6,0,.8.1c.2,0,.4.2.5.4.1.2.2.4.3.6,0,.2,0,.5,0,.8v4.3h-.7Z"/>
  <path class="st0" d="M35.5,23.2v.4c0,.3,0,.6,0,.9,0,.3,0,.5.2.7,0,.2.2.3.4.4.2,0,.4.1.7.1s.5,0,.6-.1c.2,0,.3-.2.4-.3,0-.1.2-.3.2-.5,0-.2,0-.4,0-.6h.7c0,.3,0,.5-.1.8,0,.2-.2.4-.3.6-.2.2-.4.3-.6.4-.2.1-.6.2-.9.2s-.8,0-1-.2c-.3-.1-.5-.4-.6-.6s-.2-.6-.3-.9,0-.7,0-1.1,0-.8,0-1.2c0-.4.1-.8.2-1.1.1-.3.3-.6.6-.8s.7-.3,1.2-.3.7,0,1,.2.4.3.6.5c.1.2.2.5.3.8,0,.3,0,.6,0,1v.8h-3.3ZM38.1,22.7v-.3c0-.1,0-.3,0-.4,0-.2,0-.4,0-.5s-.1-.3-.2-.5c0-.1-.2-.2-.4-.3-.1,0-.3-.1-.5-.1-.5,0-.8.1-1,.4-.2.3-.3.6-.4,1,0,.3,0,.5,0,.8h2.6Z"/>
  <path class="st0" d="M42.3,20.6c-.5,0-.8.2-1.1.5-.2.3-.4.7-.4,1.1v4h-.7v-5c0-.2,0-.4,0-.6,0-.2,0-.4,0-.6h.7v.8c.2-.3.4-.5.7-.7s.6-.3.9-.3h0s0,0,0,0v.7s-.1,0-.2,0Z"/>
  <path class="st0" d="M44,23.2v.4c0,.3,0,.6,0,.9,0,.3,0,.5.2.7,0,.2.2.3.4.4.2,0,.4.1.7.1s.5,0,.6-.1c.2,0,.3-.2.4-.3,0-.1.2-.3.2-.5,0-.2,0-.4,0-.6h.7c0,.3,0,.5-.1.8,0,.2-.2.4-.3.6-.2.2-.4.3-.6.4-.2.1-.6.2-.9.2s-.8,0-1-.2c-.3-.1-.5-.4-.6-.6s-.2-.6-.3-.9,0-.7,0-1.1,0-.8,0-1.2c0-.4.1-.8.2-1.1.1-.3.3-.6.6-.8s.7-.3,1.2-.3.7,0,1,.2.4.3.6.5c.1.2.2.5.3.8,0,.3,0,.6,0,1v.8h-3.3ZM46.5,22.7v-.3c0-.1,0-.3,0-.4,0-.2,0-.4,0-.5,0-.2-.1-.3-.2-.5,0-.1-.2-.2-.4-.3-.1,0-.3-.1-.5-.1-.5,0-.8.1-1,.4-.2.3-.3.6-.4,1,0,.3,0,.5,0,.8h2.6Z"/>
</svg>